<?xml version="1.0" encoding="UTF-8"?>
<svg version="1.1" viewBox="0 0 256 512" xmlns="http://www.w3.org/2000/svg" xmlns:xlink="http://www.w3.org/1999/xlink">
    <!--Generated by IJSVG (https://github.com/curthard89/IJSVG)-->
    <g fill="#D3D3D3">
        <path d="M190.746,140.274c10.836,-14.627 17.254,-32.714 17.254,-52.274c0,-48.523 -39.477,-88 -88,-88c-48.523,0 -88,39.477 -88,88c0,19.56 6.418,37.647 17.254,52.274c-28.669,10.204 -49.254,37.599 -49.254,69.726v105c0,24.74 17.041,45.576 40,51.387v92.613c0,29.224 23.776,53 53,53h54c29.224,0 53,-23.776 53,-53v-92.613c22.959,-5.812 40,-26.647 40,-51.387v-105c0,-32.127 -20.585,-59.522 -49.254,-69.726Zm-70.746,-108.274c30.928,0 56,25.072 56,56c0,30.928 -25.072,56 -56,56c-30.928,0 -56,-25.072 -56,-56c0,-30.928 25.072,-56 56,-56Zm88,283c0,11.598 -9.402,21 -21,21h-19v123c0,11.598 -9.402,21 -21,21h-54c-11.598,0 -21,-9.402 -21,-21v-123h-19c-11.598,0 -21,-9.402 -21,-21v-105c0,-23.196 18.804,-42 42,-42h9.36c22.711,10.443 49.59,10.894 73.28,0h9.36c23.196,0 42,18.804 42,42v105Z" transform="translate(8, 0)"></path>
    </g>
</svg>